<svg width="48" height="17" viewBox="0 0 48 17" fill="none" xmlns="http://www.w3.org/2000/svg">
<path d="M24 3.83747C20.8 3.83747 17.7 4.31716 14.8 5.21896V11.167C14.8 11.9345 14.34 12.5869 13.68 12.8939C11.72 13.8341 9.94 15.0429 8.34 16.4436C8 16.7889 7.5 17 7 17C6.4 17 5.9 16.7698 5.54 16.4244L0.58 11.6659C0.22 11.3205 0 10.8409 0 10.3228C0 9.78555 0.22 9.30587 0.58 8.9605C6.68 3.39616 14.92 0 24 0C33.08 0 41.32 3.39616 47.42 8.9605C47.78 9.30587 48 9.78555 48 10.3228C48 10.8409 47.78 11.3205 47.42 11.6659L42.46 16.4244C42.1 16.7698 41.6 17 41 17C40.5 17 40 16.7889 39.64 16.4436C38.06 15.0429 36.28 13.8341 34.32 12.8939C33.66 12.5869 33.2 11.9345 33.2 11.167V5.21896C30.3 4.31716 27.2 3.83747 24 3.83747Z" fill="white"/>
</svg>
