<svg width="24" height="24" viewBox="0 0 24 24" fill="none" xmlns="http://www.w3.org/2000/svg">
<path d="M24 12C24 5.37188 18.6281 0 12 0C5.37188 0 0 5.37188 0 12C0 17.9902 4.38563 22.9547 10.1259 23.8552V15.4716H7.08141V12H10.1259V9.35672C10.1259 6.35156 11.9142 4.68844 14.6564 4.68844C15.9713 4.68844 17.3456 4.92516 17.3456 4.92516V7.87734H15.8334C14.3409 7.87734 13.8806 8.80453 13.8806 9.75141V12H17.2078L16.6753 15.4716H13.8806V23.8552C19.6144 22.9547 24 17.9902 24 12Z" fill="white"/>
<path d="M16.6681 15.4706L17.2011 11.9991H13.8739V9.75047C13.8739 8.80359 14.3408 7.87641 15.8267 7.87641H17.3389V4.92422C17.3389 4.92422 15.9646 4.6875 14.6497 4.6875C11.908 4.6875 10.1192 6.35109 10.1192 9.35578V11.9991H7.07471V15.4706H10.1192V23.8542C10.731 23.9527 11.3553 23.9991 11.9933 23.9991C12.6313 23.9991 13.2556 23.9466 13.8674 23.8542V15.4706H16.6681Z" fill="#78AFFF"/>
</svg>
