<svg width="26" height="29" viewBox="0 0 26 29" fill="none" xmlns="http://www.w3.org/2000/svg">
<path d="M0.854064 28.2969L5.44213 0.660511H16.3455C18.4327 0.660511 20.1509 1.02936 21.5004 1.76704C22.8588 2.50473 23.8124 3.55279 24.3612 4.91122C24.9189 6.26065 25.0494 7.85298 24.7525 9.68821C24.4466 11.5234 23.7854 13.0978 22.7688 14.4112C21.7613 15.7247 20.4478 16.7367 18.8285 17.4474C17.2182 18.1491 15.3515 18.5 13.2284 18.5H5.92793L6.73759 13.804H13.0799C14.1954 13.804 15.149 13.651 15.9407 13.3452C16.7324 13.0393 17.3576 12.5805 17.8164 11.9688C18.2842 11.357 18.5901 10.5968 18.734 9.68821C18.887 8.7616 18.833 7.98793 18.5721 7.36719C18.3112 6.73745 17.8389 6.26065 17.1552 5.93679C16.4715 5.60393 15.5719 5.4375 14.4563 5.4375H10.516L6.6971 28.2969H0.854064ZM17.8569 15.7202L22.6474 28.2969H16.1971L11.5551 15.7202H17.8569Z" fill="white"/>
</svg>
