<svg width="30" height="29" viewBox="0 0 30 29" fill="none" xmlns="http://www.w3.org/2000/svg">
<path d="M3.75 16.9167L4.375 17.0013L10.0875 11.4792C9.8625 10.6938 10.075 9.79958 10.7375 9.17125C11.7125 8.21667 13.2875 8.21667 14.2625 9.17125C14.925 9.79958 15.1375 10.6938 14.9125 11.4792L18.125 14.5846L18.75 14.5C18.975 14.5 19.1875 14.5 19.375 14.5846L23.8375 10.2708C23.75 10.0896 23.75 9.88417 23.75 9.66667C23.75 9.02573 24.0134 8.41104 24.4822 7.95783C24.9511 7.50461 25.587 7.25 26.25 7.25C26.913 7.25 27.5489 7.50461 28.0178 7.95783C28.4866 8.41104 28.75 9.02573 28.75 9.66667C28.75 10.3076 28.4866 10.9223 28.0178 11.3755C27.5489 11.8287 26.913 12.0833 26.25 12.0833C26.025 12.0833 25.8125 12.0833 25.625 11.9988L21.1625 16.3125C21.25 16.4938 21.25 16.6992 21.25 16.9167C21.25 17.5576 20.9866 18.1723 20.5178 18.6255C20.0489 19.0787 19.413 19.3333 18.75 19.3333C18.087 19.3333 17.4511 19.0787 16.9822 18.6255C16.5134 18.1723 16.25 17.5576 16.25 16.9167L16.3375 16.3125L13.125 13.2071C12.725 13.2917 12.275 13.2917 11.875 13.2071L6.1625 18.7292L6.25 19.3333C6.25 19.9743 5.98661 20.589 5.51777 21.0422C5.04893 21.4954 4.41304 21.75 3.75 21.75C3.08696 21.75 2.45107 21.4954 1.98223 21.0422C1.51339 20.589 1.25 19.9743 1.25 19.3333C1.25 18.6924 1.51339 18.0777 1.98223 17.6245C2.45107 17.1713 3.08696 16.9167 3.75 16.9167Z" fill="#FFD2D2"/>
</svg>
