<svg width="21" height="20" viewBox="0 0 21 20" fill="none" xmlns="http://www.w3.org/2000/svg">
<path d="M13.9039 8.25168C16.4787 8.25168 18.5385 10.3146 18.5385 12.8932C18.5385 13.8009 18.281 14.657 17.8279 15.3687L21 18.5663L19.5684 20L16.3551 16.8334C15.6444 17.2769 14.7999 17.5348 13.9039 17.5348C11.3291 17.5348 9.26925 15.4719 9.26925 12.8932C9.26925 10.3146 11.3291 8.25168 13.9039 8.25168ZM13.9039 10.3146C13.221 10.3146 12.5661 10.5863 12.0832 11.0699C11.6004 11.5535 11.3291 12.2093 11.3291 12.8932C11.3291 13.5771 11.6004 14.233 12.0832 14.7166C12.5661 15.2002 13.221 15.4719 13.9039 15.4719C14.5868 15.4719 15.2417 15.2002 15.7245 14.7166C16.2074 14.233 16.4787 13.5771 16.4787 12.8932C16.4787 12.2093 16.2074 11.5535 15.7245 11.0699C15.2417 10.5863 14.5868 10.3146 13.9039 10.3146ZM8.23933 0C9.33194 0 10.3798 0.434685 11.1524 1.20843C11.925 1.98217 12.359 3.0316 12.359 4.12584C12.359 5.06447 12.0397 5.93089 11.5145 6.63229C10.6287 6.96235 9.8357 7.4884 9.17656 8.14853L8.23933 8.25168C7.14673 8.25168 6.09888 7.81699 5.32629 7.04325C4.5537 6.2695 4.11967 5.22008 4.11967 4.12584C4.11967 3.0316 4.5537 1.98217 5.32629 1.20843C6.09888 0.434685 7.14673 0 8.23933 0ZM0 16.5034V14.4404C0 12.2537 3.40902 10.459 7.72437 10.3146C7.3948 11.1191 7.20942 11.9856 7.20942 12.8932C7.20942 14.2238 7.60078 15.4719 8.23933 16.5034H0Z" fill="#819EC7"/>
</svg>
